<svg id="Layer_1" data-name="Layer 1" xmlns="http://www.w3.org/2000/svg" viewBox="0 0 444.32 398.76"><defs><style>.cls-1{opacity:0.42;}.cls-2{fill:#f5f6f7;}.cls-2,.cls-3,.cls-9{stroke:#fff;}.cls-2,.cls-3,.cls-5{stroke-linecap:round;stroke-linejoin:round;stroke-width:0.5px;}.cls-3,.cls-5{fill:#042033;}.cls-3{opacity:0.54;}.cls-4{opacity:0.51;}.cls-5{stroke:#231f20;opacity:0.47;}.cls-6{opacity:0.62;}.cls-7{fill:#f4f7f9;}.cls-8,.cls-9{fill:none;stroke-miterlimit:10;}.cls-8{stroke:#f7f8f9;}.cls-9{stroke-width:18px;opacity:0.64;}</style></defs><title>Logo Transparency E</title><g id="Layer_4" data-name="Layer 4" class="cls-1"><rect class="cls-2" x="23.07" y="15.51" width="403" height="367"/><rect class="cls-3" x="3.07" y="0.51" width="441" height="398"/></g><g id="Layer_5" data-name="Layer 5" class="cls-4"><rect class="cls-5" x="13.13" y="15.51" width="412.95" height="367"/></g><g id="Layer_7" data-name="Layer 7" class="cls-6"><polygon class="cls-7" points="307.57 84.01 307.57 319.51 284.84 319.51 152.77 319.51 152.77 299.27 284.84 299.27 284.84 207.28 160.35 207.28 160.35 206.36 160.35 187.04 284.84 187.04 284.84 103.33 152.77 103.33 152.77 84.01 307.57 84.01"/><line class="cls-8" x1="152.77" y1="84.01" x2="307.57" y2="84.01"/><line class="cls-8" x1="160.35" y1="187.04" x2="284.84" y2="187.04"/><line class="cls-8" x1="160.35" y1="207.28" x2="284.84" y2="207.28"/><polygon class="cls-8" points="160.35 187.04 160.35 206.36 160.35 207.28 160.35 187.04"/><polyline class="cls-8" points="284.84 103.33 152.77 103.33 152.77 84.01 152.77 103.33"/><path class="cls-8" d="M682.27,496v0Z" transform="translate(-397.43 -308.99)"/><polyline class="cls-8" points="152.77 299.27 284.84 299.27 284.84 207.28 284.84 299.27"/><polyline class="cls-8" points="307.57 319.51 284.84 319.51 152.77 319.51 152.77 299.27 152.77 319.51"/><path class="cls-8" d="M705,628.5v0Z" transform="translate(-397.43 -308.99)"/></g><rect class="cls-9" x="9" y="9" width="424.43" height="379.03"/></svg>