<?xml version="1.0" encoding="utf-8"?>
<!-- Generator: Adobe Illustrator 23.0.3, SVG Export Plug-In . SVG Version: 6.00 Build 0)  -->
<svg version="1.1" id="Layer_1" xmlns="http://www.w3.org/2000/svg" xmlns:xlink="http://www.w3.org/1999/xlink" x="0px" y="0px"
	 viewBox="0 0 1250 1080" style="enable-background:new 0 0 1250 1080;" xml:space="preserve">
<style type="text/css">
	.st0{opacity:0.6;}
	.st1{opacity:0.61;}
	.st2{fill:#00194A;}
	.st3{display:none;}
	.st4{display:inline;}
	.st5{fill:none;stroke:#231F20;stroke-width:0.5;stroke-linecap:round;stroke-linejoin:round;}
	.st6{fill:#F4F7F9;}
	.st7{fill:none;stroke:#F7F8F9;stroke-miterlimit:10;}
	.st8{display:inline;fill:none;}
	.st9{display:inline;fill:#F5F6F7;}
	.st10{font-family:'CenturyGothic';}
	.st11{font-size:41px;}
	.st12{opacity:0.77;fill:none;stroke:#FFFFFF;stroke-width:20;stroke-miterlimit:10;}
</style>
<g class="st0">
	<g class="st1">
		<rect x="0.5" y="0.5" class="st2" width="1249" height="1079"/>
		<path class="st2" d="M1249,1v1078H1V1H1249 M1250,0H0v1080h1250V0L1250,0z"/>
	</g>
</g>
<g class="st3">
	<g id="XMLID_4_" class="st4">
		<g>
			<rect x="124" y="77" class="st5" width="994" height="899"/>
			<rect x="420" y="325" class="st5" width="408" height="367"/>
			<rect x="400.8" y="309" class="st5" width="440.5" height="398.4"/>
			<polygon class="st5" points="720.2,649.5 522,649.5 522,625.6 691,625.6 691,515.4 539.2,515.4 539.2,491.5 691,491.5 691,390.9 
				529,390.9 529,366.9 720.2,366.9 			"/>
			<polygon class="st5" points="402.6,721.1 419,721.1 419,724.7 407,724.7 407,730.2 418.4,730.2 418.4,733.8 407,733.8 407,739.8 
				419.6,739.8 419.6,743.4 402.6,743.4 			"/>
			<path class="st5" d="M436.1,725.8c-1-1.2-2.6-1.8-4.3-1.8c-2,0-4,0.8-4,2.9c0,4.5,11.8,1.9,11.8,9.9c0,4.8-4.2,7.1-9,7.1
				c-3.1,0-6.1-0.9-8.1-3l3.4-2.9c1,1.4,2.9,2.3,4.8,2.3c2.1,0,4.3-1,4.3-3.1c0-4.9-11.8-2-11.8-10c0-4.7,4.6-6.8,9.1-6.8
				c2.6,0,5.2,0.7,7.1,2.3L436.1,725.8z"/>
			<path class="st5" d="M464.4,724l-3.4,2.3c-1.8-1.7-3.5-2.2-5.3-2.2c-5.1,0-8.4,3.5-8.4,8c0,4.8,3.4,8.3,8.4,8.3
				c2,0,3.9-0.8,5.6-2.7l3.7,2.3c-2.3,2.8-5.6,4-9.2,4c-7.6,0-13-4.7-13-11.7c0-7.1,5.4-11.8,13-11.8
				C459.1,720.5,462,721.5,464.4,724z"/>
			<path class="st5" d="M470.3,723.8c2.3-2.1,5.6-3.3,9.4-3.3c7.7-0.1,13.1,4.6,13.1,11.7c0,7-5.4,11.7-13.1,11.8
				c-4.3,0-7.8-1.5-10.2-4c-1.8-2-2.9-4.6-2.9-7.6C466.6,728.7,468,725.8,470.3,723.8z"/>
			<path class="st5" d="M479.7,740.4c5.1,0,8.5-3.5,8.5-8.3c0-4.5-3.4-8-8.5-8s-8.5,3.5-8.5,8C471.2,736.9,474.6,740.4,479.7,740.4z
				"/>
			<path class="st5" d="M497,721.1h9.6c3.7,0,7.6,1.5,7.6,5.6c0,2.5-1.7,4.2-4.3,4.9v0.1c3.1,0.3,5.3,2.5,5.3,5.4
				c0,4.9-4.6,6.4-9.4,6.4H497L497,721.1L497,721.1z"/>
			<path class="st5" d="M501.4,730.2h4c2.9,0,4.4-1.2,4.4-2.8c0-1.9-1.5-2.9-4.8-2.9h-3.6L501.4,730.2L501.4,730.2z"/>
			<path class="st5" d="M501.4,740h4c2.3,0,5.4-0.3,5.4-3.3c0-2.4-1.6-3.2-5.2-3.2h-4.2V740z"/>
			<polygon class="st5" points="527.6,721.1 531.5,721.1 542.1,743.4 537,743.4 534.8,738.3 524,738.3 521.8,743.4 516.9,743.4 			
				"/>
			<polygon class="st5" points="533.3,734.9 529.4,725.8 525.5,734.9 			"/>
			<path class="st5" d="M544.9,721.1h8.6c4.8,0,9.2,1.4,9.2,6.4c0,3.3-2.1,5.6-5.8,6.1l6.5,9.9h-5.3l-5.8-9.5h-3.2v9.5h-4.4
				L544.9,721.1L544.9,721.1z"/>
			<path class="st5" d="M552.7,730.5c2.5,0,5.4-0.2,5.4-3.1c0-2.7-2.7-3-5-3h-3.8v6.1L552.7,730.5L552.7,730.5z"/>
			<path class="st5" d="M577.2,721.1h9.7c6.5,0,12.6,3.6,12.6,11.2c0,7.6-7.2,11.2-13.1,11.2h-9.2L577.2,721.1L577.2,721.1z"/>
			<path class="st5" d="M584.9,739.8c5.5,0,10-2.2,10-7.6c0-5.5-3.9-7.6-9.3-7.6h-4v15.2L584.9,739.8L584.9,739.8z"/>
			<polygon class="st5" points="603.7,721.1 620.1,721.1 620.1,724.7 608.1,724.7 608.1,730.2 619.5,730.2 619.5,733.8 608.1,733.8 
				608.1,739.8 620.7,739.8 620.7,743.4 603.7,743.4 			"/>
			<path class="st5" d="M637.1,725.8c-0.9-1.2-2.6-1.8-4.3-1.8c-2,0-4,0.8-4,2.9c0,4.5,11.8,1.9,11.8,9.9c0,4.8-4.2,7.1-9,7.1
				c-3.1,0-6.1-0.9-8.1-3l3.3-2.9c1.1,1.4,2.9,2.3,4.9,2.3c2,0,4.3-1,4.3-3.1c0-4.9-11.8-2-11.8-10c0-4.7,4.5-6.8,9.1-6.8
				c2.6,0,5.1,0.7,7.1,2.3L637.1,725.8z"/>
			<rect x="645" y="721.1" class="st5" width="4.4" height="22.3"/>
			<path class="st5" d="M673,730.3h3.7v11.5c-3,1.4-6.4,2.2-10.2,2.2c-7.6,0-13-4.7-13-11.7c0-7.1,5.4-11.8,13-11.8
				c3.8,0,7.2,0.8,9.7,2.8l-3.2,3c-1.5-1.4-4-2.2-6.4-2.2c-5.1,0-8.5,3.5-8.5,8c0,4.8,3.4,8.3,8.5,8.3c2.2,0,4.2-0.4,5.8-1.2v-5.3
				h-5v-3.6L673,730.3L673,730.3z"/>
			<polygon class="st5" points="682,721.1 687.8,721.1 699.8,737.7 699.8,737.8 699.8,737.8 699.8,737.7 699.8,721.1 704.2,721.1 
				704.2,743.4 698.6,743.4 686.4,726.3 686.3,726.3 686.3,743.4 682,743.4 			"/>
			<path class="st5" d="M742,741.8c-3,1.4-6.4,2.2-10.3,2.2c-7.6,0-13-4.7-13-11.7c0-7.1,5.4-11.8,13-11.8c3.8,0,7.2,0.8,9.8,2.8
				l-3.2,3c-1.6-1.4-4-2.2-6.5-2.2c-5.1,0-8.5,3.5-8.5,8c0,4.8,3.4,8.3,8.5,8.3c2.3,0,4.3-0.4,5.8-1.2v-5.3h-5.1v-3.6h9.5L742,741.8
				L742,741.8z"/>
			<path class="st5" d="M747.3,721.1h8.6c4.8,0,9.2,1.4,9.2,6.4c0,3.3-2.1,5.6-5.8,6.1l6.5,9.9h-5.3l-5.8-9.5h-3.2v9.5h-4.4
				L747.3,721.1L747.3,721.1z"/>
			<path class="st5" d="M755.1,730.5c2.5,0,5.4-0.2,5.4-3.1c0-2.7-2.8-3-5-3h-3.8v6.1L755.1,730.5L755.1,730.5z"/>
			<path class="st5" d="M781,720.5c7.7-0.1,13.2,4.6,13.2,11.7c0,7-5.4,11.7-13.2,11.8c-7.6,0-13-4.7-13-11.7
				C767.9,725.2,773.4,720.5,781,720.5z"/>
			<path class="st5" d="M781,740.4c5.1,0,8.5-3.5,8.5-8.3c0-4.5-3.4-8-8.5-8c-5.1,0-8.5,3.5-8.5,8
				C772.5,736.9,775.9,740.4,781,740.4z"/>
			<path class="st5" d="M818.1,735.2c0,5.4-4.3,8.8-9.9,8.8c-5.7,0-10-3.4-10-8.8v-14.1h4.4v14c0,2.2,1.3,5.1,5.6,5.1
				c4.2,0,5.5-2.9,5.5-5.1v-14h4.4L818.1,735.2L818.1,735.2z"/>
			<path class="st5" d="M823.5,721.1h8.3c4.8,0,9.1,1.5,9.1,6.5c0,5.6-4.7,6.6-9.9,6.6H828v9.3h-4.4L823.5,721.1L823.5,721.1z"/>
			<path class="st5" d="M830.6,730.8c2.5,0,5.8-0.1,5.8-3.2c0-2.8-2.9-3.2-5.3-3.2H828v6.3L830.6,730.8L830.6,730.8z"/>
		</g>
	</g>
</g>
<g id="Layer_7">
	<g id="XMLID_1_">
		<g>
			<polygon class="st6" points="714,372.6 714,641.4 689.5,641.4 547.1,641.4 547.1,618.3 689.5,618.3 689.5,513.3 555.3,513.3 
				555.3,512.3 555.3,490.2 689.5,490.2 689.5,394.7 547.1,394.7 547.1,372.6 			"/>
		</g>
		<g>
			<line class="st7" x1="547.1" y1="372.6" x2="714" y2="372.6"/>
			<line class="st7" x1="555.3" y1="490.2" x2="689.5" y2="490.2"/>
			<line class="st7" x1="555.3" y1="513.3" x2="689.5" y2="513.3"/>
			<polyline class="st7" points="555.3,490.2 555.3,512.3 555.3,513.3 			"/>
			<line class="st7" x1="547.1" y1="372.6" x2="547.1" y2="394.7"/>
			<line class="st7" x1="689.5" y1="394.7" x2="547.1" y2="394.7"/>
			<line class="st7" x1="689.5" y1="490.2" x2="689.5" y2="394.7"/>
			<line class="st7" x1="689.5" y1="513.3" x2="689.5" y2="618.3"/>
			<line class="st7" x1="547.1" y1="618.3" x2="689.5" y2="618.3"/>
			<line class="st7" x1="547.1" y1="618.3" x2="547.1" y2="641.4"/>
			<polyline class="st7" points="714,641.4 689.5,641.4 547.1,641.4 			"/>
			<line class="st7" x1="714" y1="641.4" x2="714" y2="372.6"/>
		</g>
	</g>
</g>
<g id="Layer_8" class="st3">
	<rect x="397.6" y="724" class="st8" width="489.1" height="78.9"/>
	<text transform="matrix(0.8687 0 0 1 400.7744 772.0576)" class="st9 st10 st11">ESCOBAR DESIGN GROUP</text>
</g>
<g id="Layer_3">
	<polygon class="st12" points="411.1,317.5 830.7,317.5 832.1,696.4 411.1,699.9 	"/>
</g>
</svg>
