<?xml version="1.0" encoding="utf-8"?>
<!-- Generator: Adobe Illustrator 23.0.3, SVG Export Plug-In . SVG Version: 6.00 Build 0)  -->
<svg version="1.1" xmlns="http://www.w3.org/2000/svg" xmlns:xlink="http://www.w3.org/1999/xlink" x="0px" y="0px"
	 viewBox="0 0 1250 1080" style="enable-background:new 0 0 1250 1080;" xml:space="preserve">
<style type="text/css">
	.st0{fill:#2F3943;}
	.st1{display:none;}
	.st2{display:inline;}
	.st3{fill:none;stroke:#231F20;stroke-width:0.5;stroke-linecap:round;stroke-linejoin:round;}
	.st4{fill:#F5F6F7;stroke:#231F20;stroke-width:0.5;stroke-linecap:round;stroke-linejoin:round;}
	.st5{fill:none;stroke:#000000;stroke-width:0.5;stroke-linecap:round;stroke-linejoin:round;}
	.st6{fill:#2F3943;stroke:#231F20;stroke-width:0.5;stroke-linecap:round;stroke-linejoin:round;}
	.st7{display:inline;stroke:#000000;stroke-miterlimit:10;}
	.st8{fill:#F4F7F9;}
	.st9{fill:none;stroke:#F7F8F9;stroke-miterlimit:10;}
	.st10{fill:none;}
	.st11{fill:#F5F6F7;}
	.st12{font-family:'CenturyGothic';}
	.st13{font-size:41px;}
</style>
<g id="Layer_1">
	<g>
		<rect x="0.5" y="0.5" class="st0" width="1249" height="1079"/>
		<path d="M1249,1v1078H1V1H1249 M1250,0H0v1080h1250V0L1250,0z"/>
	</g>
</g>
<g id="Layer_2" class="st1">
	<g id="XMLID_4_" class="st2">
		<g>
		</g>
		<g>
			<rect x="123.98" y="76.99" class="st3" width="994.01" height="899.01"/>
			<rect x="420.02" y="324.98" class="st3" width="407.99" height="367.01"/>
			<rect x="400.75" y="308.99" class="st3" width="440.48" height="398.38"/>
			<polygon class="st3" points="720.15,649.49 522,649.49 522,625.59 690.97,625.59 690.97,515.43 539.19,515.43 539.19,491.47 
				690.97,491.47 690.97,390.88 529.03,390.88 529.03,366.92 720.15,366.92 			"/>
			<polygon class="st3" points="402.64,721.09 419.04,721.09 419.04,724.69 407.05,724.69 407.05,730.17 418.36,730.17 
				418.36,733.76 407.05,733.76 407.05,739.85 419.65,739.85 419.65,743.44 402.64,743.44 			"/>
			<path class="st3" d="M436.11,725.85c-0.98-1.16-2.63-1.77-4.34-1.77c-2.02,0-4.04,0.83-4.04,2.88c0,4.48,11.75,1.94,11.75,9.9
				c0,4.81-4.22,7.14-9.05,7.14c-3.12,0-6.12-0.89-8.14-3.04l3.36-2.88c1.04,1.44,2.94,2.32,4.83,2.32c2.08,0,4.34-1,4.34-3.1
				c0-4.87-11.75-2.05-11.75-10.01c0-4.65,4.59-6.81,9.12-6.81c2.57,0,5.2,0.66,7.1,2.32L436.11,725.85z"/>
			<path class="st3" d="M464.43,724.02l-3.43,2.27c-1.84-1.72-3.49-2.21-5.26-2.21c-5.08,0-8.44,3.54-8.44,8.02
				c0,4.76,3.36,8.3,8.44,8.3c2.02,0,3.92-0.83,5.57-2.71l3.67,2.32c-2.26,2.77-5.63,3.98-9.24,3.98c-7.59,0-13.03-4.7-13.03-11.67
				c0-7.14,5.44-11.84,13.03-11.84C459.11,720.48,461.98,721.48,464.43,724.02z"/>
			<path class="st3" d="M470.3,723.75c2.32-2.1,5.57-3.26,9.36-3.26c7.71-0.11,13.15,4.59,13.15,11.73
				c0,6.97-5.44,11.67-13.15,11.79c-4.28,0-7.83-1.49-10.16-4.04c-1.84-1.99-2.88-4.59-2.88-7.64
				C466.63,728.73,467.98,725.79,470.3,723.75z"/>
			<path class="st3" d="M479.72,740.4c5.14,0,8.5-3.54,8.5-8.3c0-4.48-3.36-8.02-8.5-8.02s-8.5,3.54-8.5,8.02
				C471.22,736.86,474.59,740.4,479.72,740.4z"/>
			<path class="st3" d="M497.04,721.09h9.6c3.73,0,7.59,1.55,7.59,5.59c0,2.55-1.71,4.21-4.28,4.92v0.06
				c3.12,0.28,5.32,2.49,5.32,5.37c0,4.87-4.65,6.42-9.36,6.42h-8.87V721.09z"/>
			<path class="st3" d="M501.44,730.17h3.98c2.94,0,4.4-1.16,4.4-2.82c0-1.94-1.47-2.88-4.77-2.88h-3.61V730.17z"/>
			<path class="st3" d="M501.44,740.01h4.04c2.26,0,5.38-0.33,5.38-3.26c0-2.38-1.65-3.15-5.2-3.15h-4.22V740.01z"/>
			<polygon class="st3" points="527.63,721.09 531.48,721.09 542.06,743.44 537.05,743.44 534.78,738.3 524.02,738.3 521.81,743.44 
				516.92,743.44 			"/>
			<polygon class="st3" points="533.25,734.92 529.4,725.79 525.55,734.92 			"/>
			<path class="st3" d="M544.88,721.09h8.56c4.77,0,9.24,1.38,9.24,6.36c0,3.26-2.08,5.59-5.75,6.09l6.55,9.9h-5.26l-5.75-9.52
				h-3.18v9.52h-4.4V721.09z"/>
			<path class="st3" d="M552.65,730.55c2.51,0,5.38-0.22,5.38-3.1c0-2.66-2.69-2.99-4.96-2.99h-3.79v6.09H552.65z"/>
			<path class="st3" d="M577.18,721.09h9.73c6.48,0,12.6,3.6,12.6,11.18c0,7.64-7.16,11.18-13.09,11.18h-9.24V721.09z"/>
			<path class="st3" d="M584.89,739.85c5.51,0,10.03-2.16,10.03-7.58c0-5.48-3.92-7.58-9.3-7.58h-4.04v15.16H584.89z"/>
			<polygon class="st3" points="603.67,721.09 620.06,721.09 620.06,724.69 608.07,724.69 608.07,730.17 619.45,730.17 
				619.45,733.76 608.07,733.76 608.07,739.85 620.68,739.85 620.68,743.44 603.67,743.44 			"/>
			<path class="st3" d="M637.13,725.85c-0.92-1.16-2.57-1.77-4.34-1.77c-2.02,0-4.04,0.83-4.04,2.88c0,4.48,11.75,1.94,11.75,9.9
				c0,4.81-4.16,7.14-9.05,7.14c-3.06,0-6.06-0.89-8.08-3.04l3.3-2.88c1.1,1.44,2.94,2.32,4.89,2.32c2.02,0,4.34-1,4.34-3.1
				c0-4.87-11.75-2.05-11.75-10.01c0-4.65,4.53-6.81,9.12-6.81c2.57,0,5.14,0.66,7.1,2.32L637.13,725.85z"/>
			<rect x="644.96" y="721.09" class="st3" width="4.4" height="22.35"/>
			<path class="st3" d="M672.98,730.33h3.73v11.45c-3,1.44-6.42,2.21-10.22,2.21c-7.59,0-13.03-4.7-13.03-11.67
				c0-7.14,5.44-11.84,13.03-11.84c3.79,0,7.16,0.77,9.73,2.82l-3.24,2.99c-1.53-1.38-3.98-2.21-6.42-2.21
				c-5.08,0-8.5,3.54-8.5,8.02c0,4.76,3.43,8.3,8.5,8.3c2.2,0,4.22-0.39,5.75-1.16v-5.31h-5.02v-3.6H672.98z"/>
			<polygon class="st3" points="681.98,721.09 687.79,721.09 699.78,737.69 699.78,737.75 699.84,737.75 699.84,737.69 
				699.84,721.09 704.24,721.09 704.24,743.44 698.62,743.44 686.44,726.29 686.32,726.29 686.32,743.44 681.98,743.44 			"/>
			<path class="st3" d="M742.05,741.78c-3,1.44-6.42,2.21-10.28,2.21c-7.59,0-13.03-4.7-13.03-11.67c0-7.14,5.44-11.84,13.03-11.84
				c3.79,0,7.16,0.77,9.79,2.82l-3.24,2.99c-1.59-1.38-3.98-2.21-6.48-2.21c-5.08,0-8.5,3.54-8.5,8.02c0,4.76,3.43,8.3,8.5,8.3
				c2.26,0,4.28-0.39,5.81-1.16v-5.31h-5.08v-3.6h9.48V741.78z"/>
			<path class="st3" d="M747.25,721.09h8.56c4.77,0,9.24,1.38,9.24,6.36c0,3.26-2.08,5.59-5.75,6.09l6.55,9.9h-5.26l-5.75-9.52
				h-3.18v9.52h-4.4V721.09z"/>
			<path class="st3" d="M755.08,730.55c2.45,0,5.38-0.22,5.38-3.1c0-2.66-2.75-2.99-5.02-2.99h-3.79v6.09H755.08z"/>
			<path class="st3" d="M780.96,720.48c7.71-0.11,13.15,4.59,13.15,11.73c0,6.97-5.44,11.67-13.15,11.79
				c-7.59,0-13.03-4.7-13.03-11.67C767.93,725.19,773.37,720.48,780.96,720.48z"/>
			<path class="st3" d="M781.02,740.4c5.14,0,8.5-3.54,8.5-8.3c0-4.48-3.36-8.02-8.5-8.02c-5.08,0-8.5,3.54-8.5,8.02
				C772.52,736.86,775.94,740.4,781.02,740.4z"/>
			<path class="st3" d="M818.1,735.2c0,5.42-4.28,8.8-9.91,8.8c-5.69,0-9.97-3.38-9.97-8.8v-14.11h4.4v14
				c0,2.21,1.35,5.09,5.57,5.09c4.22,0,5.51-2.88,5.51-5.09v-14h4.4V735.2z"/>
			<path class="st3" d="M823.54,721.09h8.32c4.77,0,9.12,1.49,9.12,6.47c0,5.59-4.65,6.58-9.91,6.58h-3.12v9.3h-4.4V721.09z"/>
			<path class="st3" d="M830.58,730.77c2.51,0,5.75-0.11,5.75-3.15c0-2.77-2.88-3.15-5.26-3.15h-3.12v6.31H830.58z"/>
		</g>
	</g>
</g>
<g id="Layer_3">
</g>
<g id="Layer_4">
	<g>
		<g>
			<rect x="420.5" y="324.5" class="st4" width="403" height="367"/>
		</g>
		<g>
			<rect x="400.5" y="309.5" class="st4" width="441" height="398"/>
		</g>
	</g>
	<line class="st5" x1="661.85" y1="528.68" x2="661.85" y2="516.52"/>
</g>
<g id="Layer_5">
	<rect x="422.5" y="336.5" class="st6" width="396" height="348"/>
</g>
<g id="Layer_6" class="st1">
	<line class="st7" x1="694.95" y1="382" x2="694.95" y2="638"/>
	<polyline class="st7" points="694.95,638 546,638 546,616.35 673.01,616.35 673.01,516.54 558.93,516.54 558.93,494.84 
		673.01,494.84 673.01,403.71 551.29,403.71 551.29,382 	"/>
	<line class="st7" x1="551.18" y1="382.06" x2="695" y2="382.06"/>
</g>
<g id="Layer_7">
	<g id="XMLID_1_">
		<g>
			<polygon class="st8" points="705,393 705,628.5 678.86,628.5 527,628.5 527,608.26 678.86,608.26 678.86,516.27 535.71,516.27 
				535.71,515.35 535.71,496.03 678.86,496.03 678.86,412.32 527,412.32 527,393 			"/>
		</g>
		<g>
			<line class="st9" x1="527" y1="393" x2="705" y2="393"/>
			<line class="st9" x1="535.71" y1="496.03" x2="678.86" y2="496.03"/>
			<line class="st9" x1="535.71" y1="516.27" x2="678.86" y2="516.27"/>
			<polyline class="st9" points="535.71,496.03 535.71,515.35 535.71,516.27 			"/>
			<line class="st9" x1="527" y1="393" x2="527" y2="412.32"/>
			<line class="st9" x1="678.86" y1="412.32" x2="527" y2="412.32"/>
			<line class="st9" x1="678.86" y1="496.03" x2="678.86" y2="412.32"/>
			<line class="st9" x1="678.86" y1="516.27" x2="678.86" y2="608.26"/>
			<line class="st9" x1="527" y1="608.26" x2="678.86" y2="608.26"/>
			<line class="st9" x1="527" y1="608.26" x2="527" y2="628.5"/>
			<polyline class="st9" points="705,628.5 678.86,628.5 527,628.5 			"/>
			<line class="st9" x1="705" y1="628.5" x2="705" y2="393"/>
		</g>
	</g>
</g>
<g id="Layer_8">
	<rect x="397.59" y="723.96" class="st10" width="465.91" height="78.89"/>
	<text transform="matrix(0.8275 0 0 1 400.623 772.0576)" class="st11 st12 st13">ESCOBAR DESIGN GROUP</text>
</g>
</svg>
